<svg width="200" height="45" fill="none" xmlns="http://www.w3.org/2000/svg"><g clip-path="url('#clip0_88_32')"><mask id="mask0_88_32" style="mask-type:luminance" maskUnits="userSpaceOnUse" x="0" y="0" width="63" height="45"><path d="M62.146 0H0v44.227h62.146V0Z" fill="#fff"/></mask><g mask="url('#mask0_88_32')"><path d="M60.96 6.836a7.835 7.835 0 0 0-5.517-5.517C50.606 0 31.136 0 31.136 0S11.666.04 6.83 1.36a7.836 7.836 0 0 0-5.517 5.516c-1.464 8.595-2.031 21.692.04 29.944a7.835 7.835 0 0 0 5.517 5.517c4.837 1.32 24.306 1.32 24.306 1.32s19.47 0 24.307-1.32A7.835 7.835 0 0 0 61 36.82c1.543-8.607 2.019-21.696-.04-29.984Z" fill="red"/><path d="m24.94 31.183 16.15-9.355-16.15-9.355v18.71Z" fill="#fff"/></g></g><g clip-path="url('#clip1_88_32')"><path d="M191.894 12.673c2.119 0 3.718.4 4.837 1.16 1.12.759 1.92 1.958 2.399 3.597.48 1.64.68 3.878.68 6.757v4.677h-10.275v1.44l.161 3.957c.119.88.319 1.52.639 1.92.32.399.84.599 1.519.599.92 0 1.559-.36 1.879-1.08.36-.72.52-1.919.56-3.558l5.317.32c.04.24.04.56.04.96 0 2.518-.68 4.397-2.079 5.637-1.399 1.239-3.318 1.878-5.837 1.878-3.038 0-5.157-.959-6.356-2.838-1.2-1.879-1.839-4.837-1.839-8.795v-4.837c.136-6.797 1.331-11.774 8.355-11.794Zm-73.919.52v20.029c0 1.2.12 2.079.4 2.598.567 1.112 2.039.828 2.838.28.462-.312.834-.74 1.079-1.24V13.194h6.117v27.305h-4.797l-.52-3.358h-.12c-1.319 2.518-3.278 3.797-5.877 3.797-3.999-.01-4.978-2.89-5.211-5.817l-.015-.207c-.03-.448-.045-.895-.051-1.331v-20.39h6.157Zm31.543 0v20.029c0 1.2.119 2.079.399 2.598.568 1.112 2.039.828 2.839.28.461-.312.834-.74 1.079-1.24V13.194h6.117v27.305h-4.798l-.519-3.358h-.12c-1.32 2.518-3.279 3.797-5.877 3.797-4-.01-4.978-2.89-5.211-5.817l-.015-.207a24.104 24.104 0 0 1-.051-1.331v-20.39h6.157Zm-49.294-.52c1.999 0 3.639.4 4.838 1.24 1.199.839 2.119 2.118 2.678 3.877.56 1.76.84 4.118.84 7.036v3.958c0 2.919-.28 5.237-.84 6.996-.559 1.76-1.439 3.039-2.678 3.878-1.24.8-2.919 1.24-4.997 1.24-2.16.04-3.838-.4-5.078-1.2-1.239-.84-2.119-2.119-2.638-3.878-.52-1.759-.76-4.077-.76-6.996v-3.958c0-2.918.28-5.317.88-7.076.6-1.799 1.519-3.078 2.798-3.878 1.28-.8 2.919-1.239 4.957-1.239Zm69.323-10.954v14.392h.04c.559-1.04 1.279-1.879 2.278-2.519a5.64 5.64 0 0 1 3.158-.959c1.48 0 2.599.4 3.439 1.16.839.799 1.439 2.038 1.798 3.757.349 1.666.548 3.969.56 6.873v4.601c0 4.038-.519 7.036-1.479 8.955-.999 1.92-2.518 2.879-4.597 2.879-1.16 0-2.199-.28-3.158-.8a5.591 5.591 0 0 1-2.04-2.056l-.079-.143h-.12l-.64 2.599h-5.077V1.719h5.917Zm-24.467 1.4v4.957h-6.077v32.422h-5.996V8.076h-6.117V3.118h18.19Zm-65.924 0 .003.014c.059.26.867 3.854 1.756 8.04l.07.332.106.501.071.337.036.169.07.338c.013.057.025.113.036.17l.07.34.104.497c.6 2.899 1.173 5.806 1.516 7.891h.16c.328-1.87.805-4.263 1.314-6.707l.133-.638.202-.958.105-.494a769.562 769.562 0 0 1 2.134-9.701l.011-.051.019-.08h6.116l-7.076 25.225v12.114h-6.036V28.384h-.04L73.038 3.118h6.117Zm20.948 13.792c-.84 0-1.399.44-1.758 1.359-.36.92-.52 2.319-.52 4.278v8.515c0 1.999.16 3.478.48 4.358.32.88.92 1.319 1.798 1.319.84 0 1.44-.44 1.8-1.32.359-.879.519-2.358.519-4.357v-8.515c0-1.96-.16-3.398-.519-4.278-.36-.92-.96-1.36-1.8-1.36Zm70.522.8a3.67 3.67 0 0 0-1.04 1.698l-.039.14v15.512c.495.84 1.199 1.399 2.438 1.439.64 0 1.16-.24 1.559-.72.4-.48.68-1.279.84-2.398.153-1.075.233-2.555.24-4.44v-3.796c0-2.159-.08-3.798-.2-4.957-.16-1.16-.36-1.999-.72-2.479-.696-1-2.198-.987-3.078 0Zm21.148-.92c-.679.04-1.159.24-1.439.6-.32.4-.52.999-.639 1.878-.118.862-.159 3.874-.161 3.995v1.962h4.478v-1.73.033c-.003.605-.015-.352-.043-1.526l-.003-.157c-.026-1.032-.062-2.183-.114-2.577-.12-.92-.32-1.559-.639-1.918-.32-.36-.8-.56-1.44-.56Z" fill="#FBFCFD"/></g><defs><clipPath id="clip0_88_32"><path fill="#fff" d="M0 0h62.146v44.227H0z"/></clipPath><clipPath id="clip1_88_32"><path fill="#fff" transform="translate(73.04)" d="M0 0h126.961v44.227H0z"/></clipPath></defs></svg>