<svg width="63" height="45" fill="none" xmlns="http://www.w3.org/2000/svg"><g clip-path="url('#clip0_88_13')"><mask id="mask0_88_13" style="mask-type:luminance" maskUnits="userSpaceOnUse" x="0" y="0" width="63" height="45"><path d="M62.146 0H0v44.227h62.146V0Z" fill="#fff"/></mask><g mask="url('#mask0_88_13')"><path d="M60.96 6.836a7.835 7.835 0 0 0-5.517-5.517C50.606 0 31.136 0 31.136 0S11.666.04 6.83 1.36a7.836 7.836 0 0 0-5.517 5.516c-1.464 8.595-2.031 21.692.04 29.944a7.835 7.835 0 0 0 5.517 5.517c4.837 1.32 24.306 1.32 24.306 1.32s19.47 0 24.307-1.32A7.835 7.835 0 0 0 61 36.82c1.543-8.607 2.019-21.696-.04-29.984Z" fill="red"/><path d="m24.94 31.183 16.15-9.355-16.15-9.355v18.71Z" fill="#fff"/></g></g><defs><clipPath id="clip0_88_13"><path fill="#fff" d="M0 0h62.146v44.227H0z"/></clipPath></defs></svg>